<svg height="20" viewBox="0 0 86 20" width="101" xmlns="http://www.w3.org/2000/svg"><g fill="#191919"><path d="m22.761412 3.954109c2.97281 0 5.878215 1.760311 5.878215 5.681689 0 .311285-.017046.793774-.051136 1.133074-.007747.077821-.073604.136964-.151855.136964h-8.338125c.244053 1.403891 1.22027 2.317511 2.75045 2.317511 1.014953 0 1.662666-.563425 2.015188-1.237355.044163-.084825.140234-.129182.233208-.108949l3.117693.68249c.095299.021012.145658.123735.106918.21323-.729063 1.658366-2.387079 3.301944-5.494701 3.301944-4.081513 0-6.255532-2.673929-6.255532-6.060699 0-3.386747 2.262343-6.060677 6.1889-6.060677zm2.395601 4.813207c-.154955-1.336943-1.042845-2.049783-2.328972-2.049783-1.685909 0-2.395603.86926-2.662125 2.049783z"/><path d="m29.704865 15.56576v-11.101145c0-.084825.06818-.153308.152629-.153308h3.243985c.084449 0 .152629.068483.152629.153308v1.317509c.776326-1.225681 1.929963-1.827237 3.415982-1.827237 2.174019 0 4.037349 1.492608 4.037349 4.834996v6.775877c0 .084823-.068176.153307-.152629.153307h-3.243981c-.08445 0-.15263-.068484-.15263-.153307v-6.263814c0-1.492607-.776325-2.317486-1.907497-2.317486-1.220268 0-1.996594.80231-1.996594 2.629549v5.951751c0 .084823-.06818.153307-.152629.153307h-3.243985c-.084449 0-.152629-.068484-.152629-.153307z"/><path d="m40.925152 4.310514h3.440777c.067405 0 .126289.044358.146434.108949l2.584645 8.603105 2.584648-8.603105c.019371-.064591.079029-.108949.146435-.108949h3.440773c.105373 0 .179748.105058.143337.205448l-3.957554 11.060692c-.030216.084824-.11079.142413-.201439.142413h-4.313175c-.08987 0-.170445-.056811-.201439-.142413l-3.95755-11.060692c-.035637-.099613.037964-.205448.143337-.205448z"/><path d="m60.939213 15.56576v-1.740858c-.554741 1.158755-1.796704 2.250585-3.72667 2.250585-2.240646 0-3.904087-1.425682-3.904087-3.431129 0-2.116732 1.397694-3.698833 4.458828-3.698833h1.77501c.976219 0 1.241966-.71284 1.15364-1.180521-.133259-.802335-.842956-1.225681-1.840866-1.225681-1.260559 0-2.023712.699611-2.119781 1.663011-.008522.087939-.089104.150973-.175877.136187l-3.009224-.503502c-.083675-.014007-.14101-.094139-.125511-.177408.490429-2.629573 2.972809-3.702724 5.520267-3.702724 2.547463 0 5.368412.624125 5.368412 5.347838v6.263812c0 .084824-.068176.153308-.152633.153308h-3.066551c-.084454 0-.152634-.068484-.152634-.153308zm-2.683819-2.074709c1.419388 0 2.395599-1.069262 2.506393-2.406225h-2.151546c-1.308594 0-1.775013.534629-1.752541 1.270037.022469.779767.643063 1.136188 1.397694 1.136188z"/><path d="m64.844002 7.009354v-2.545525c0-.084825.068176-.153308.152626-.153308h1.266762c.58805 0 1.064537-.478606 1.064537-1.069268v-1.985985c0-.084824.068184-.153307.152626-.153307h2.889145c.084442 0 .152626.068483.152626.153307v3.055253h2.332153c.08445 0 .15255.068483.15255.153308v2.545525c0 .084825-.0681.1533-.15255.1533h-2.332153v4.12217c0 1.343192 1.136596 1.890273 2.323547 1.466927.079033-.028015.161156.031907.161156.115175v2.685604c0 .098831-.066552.185992-.16185.208559-.306816.073153-.732239.136187-1.23507.136187-2.75045 0-4.636253-.936186-4.636253-4.946303v-3.787533h-1.977226c-.08445 0-.152626-.068483-.152626-.153308z"/><path d="m85.962814 10.014786c0 3.342413-2.35144 6.060701-6.211372 6.060701-3.859848 0-6.211288-2.718288-6.211288-6.060701 0-3.342405 2.35144-6.060692 6.211288-6.060692 3.859932 0 6.211372 2.718287 6.211372 6.060692zm-3.549247 0c0-1.649027-.909584-3.030343-2.662125-3.030343s-2.662048 1.381316-2.662048 3.030343c0 1.649028.909507 3.03035 2.662048 3.03035s2.662125-1.381322 2.662125-3.03035z"/></g><path d="m7.9206 19.978989c.48989 0 .887117-.398989.887117-.891051 0-.492141-.397227-.89105-.887117-.89105-.48996 0-.887133.398909-.887133.89105 0 .492062.397173.891051.887133.891051z" fill="#87e64b"/><path d="m13.016294 13.020233-4.998072.537744c-.091424.010117-.138685-.107394-.065856-.164203l4.891152-3.824903c.317659-.2607.519875-.666926.433099-1.101944-.086774-.666926-.635315-1.101962-1.327964-1.014802l-5.314195.781338c-.093748.014009-.144108-.106616-.068955-.164202l5.26771-4.039705c1.039747-.811674 1.125748-2.407003.173549-3.334629-.866198-.870039-2.25227-.841244-3.118468.028795l-8.488449 8.67083c-.317658.347861-.461765.811673-.374991 1.30506.144109.782879.923532 1.305057 1.703731 1.160309l4.575819-.937742c.099172-.020234.153406.112841.067405.167315l-5.077098 3.263814c-.635316.406225-.923532 1.130739-.72209 1.856029.202216.957199 1.155189 1.508173 2.07872 1.276266l7.588935-1.877821c.085224-.021012.147981.0786.092973.147082l-1.185406 1.469261c-.317657.406225.202217.957199.635316.638132l3.897891-3.218678c.692649-.579766.230884-1.711284-.663981-1.624124z" fill="#87e64b"/></svg>
