<svg xmlns="http://www.w3.org/2000/svg" viewBox="0 0 640.82 640.82"><title>Asset 118</title><g id="Layer_2" data-name="Layer 2"><g id="Layer_1-2" data-name="Layer 1"><rect width="640.82" height="640.82" fill="#cdc3e1"/><g opacity="0.6"><path d="M622.25,577.89c-12.79,7.58-24.87,14.73-41.14,12.83-10.28-1.2-15-5.17-20.54-9.76-4.75-4-10.14-8.45-19.93-11.9-14.09-4.95-28.79-4.79-46.28.51C478.44,574.4,461.54,583,442,592.87c-5.64,2.86-11.47,5.81-17.56,8.81-28.64,14.15-58.68,27.25-89.69,39.14h6.2c29.17-11.36,57.44-23.77,84.49-37.13,6.09-3,11.93-6,17.57-8.82,39.07-19.79,67.3-34.1,96.9-23.69,9.42,3.31,14.64,7.66,19.24,11.5,5.54,4.62,10.77,9,21.72,10.27a48.9,48.9,0,0,0,5.58.33c14.24,0,25.32-6.56,37-13.46a166.23,166.23,0,0,1,17.43-9.38V568A162.85,162.85,0,0,0,622.25,577.89Z" fill="#fff"/></g><path d="M132.55,521.86a57,57,0,0,0,4.71-5.37S135.42,518.83,132.55,521.86Z" fill="#8379b0" opacity="0.41"/><path d="M125.14,572.5,127,572S128,571.5,125.14,572.5Z" fill="#8379b0" opacity="0.41"/><path d="M70.54,531.1c.51-8.36,1.37-16.52,1.37-16.52S70.24,520.43,70.54,531.1Z" fill="#8379b0" opacity="0.41"/><path d="M100.45,620.66a17.12,17.12,0,0,0,5.44-3.18A21.3,21.3,0,0,1,100.45,620.66Z" fill="#8379b0" opacity="0.41"/><path d="M119.55,607.16c-6.11,1.76-14,0-19.83-.57s-21.83.88-21.56-7.82,19-5.76,25.81-4.63c3.1.52,19.25,5.73,36.88-8.78s20-53.2,20-53.2-9.94,14-16.77,17.49c-7.62,3.91-11.26,4.05-21.06,7.2s-22.12,3.24-21.36-1.82,17.08-8.48,25-11.8,18.5-10.67,27.62-22.59,1.53-30.5-1-41c-2.46-10.06.06-29-2.76-31.37-2.15-1.18-14.35,6.59-24.76,8.14s-21.18,3.33-25.46,9.45-4.52,4.3-7,24S88.27,512,86,512.08s-1.42-8.77-1.66-15.63,5.49-25.25,5.49-25.25S70,479.43,64.94,485.57s-7.89,20.59-9.69,33.51-.89,28.57-4.87,32.32-6.31-9.71-6.81-18.82S45.73,503,45.73,503s-12.46,12.65-16.92,18.67C24.7,527.22,13.3,541.3,0,573v61.68c1.13,1.06,2.24,2,3.25,2.87,7.89,6.78,25.94-11.71,25.94-11.71s-6.64,1.49-11-.47C9,621.31,3.83,609,3.83,609s7.06,11.66,12.36,13.67,13,2.18,15.68-.4c1-1,1.65-1.6,2-1.94,0-.46.14-3.5-3.29-8.44-3.73-5.37-10.86-4.58-15.92-10.25-2.29-2.57-3.59-25.09-3.59-25.09s1.09,15.75,4.11,22,12.55,6.33,18.32,11.12c4.3,3.58,4.28,5.29,4,5.93,1.58-2.17,10.94-15.05,12-17.93,1.2-3.14-4.33-12-5.64-17.34C42.73,575.58,40.66,557,40.21,553c-.06-.5-.08-.77-.08-.77l.08.77a206.71,206.71,0,0,0,3.86,21.56c3.07,13.44,7.94,19,7.94,19L74.1,562.06s-2-8.21-3.49-14.5c-.68-2.81-.49-9.7-.07-16.46-.3-10.67,1.37-16.52,1.37-16.52s-.86,8.16-1.37,16.52c.06,2.39.22,5,.53,7.86,1.65,15.63,5.75,19,5.75,19l28.38-42.68s-.54-10.11,1.44-17.89a158.09,158.09,0,0,1,5.77-17.1s-4.33,13.81-5.1,18.58a27.09,27.09,0,0,0,.74,11.63l28.13-40-40.3,64.61s9.4-.83,20.36-2.94c6.32-1.21,12.35-6.23,16.31-10.26,2.87-3,4.71-5.37,4.71-5.37a57,57,0,0,1-4.71,5.37c-3.42,3.62-8.31,8.23-13.3,11-9.16,5.17-27.42,6.71-27.42,6.71L67.17,578.12s17.59,4.28,33.65.43c10.22-2.44,20.27-5,24.32-6,2.86-1,1.86-.48,1.86-.48l-1.86.48c-2.25.79-6.89,2.51-16.28,6.17C87.31,587.06,63.79,583,63.79,583L46.9,608s6.44,7.4,28.22,13c12.25,3.12,20.48,1.59,25.33-.33a21.3,21.3,0,0,0,5.44-3.18,17.12,17.12,0,0,1-5.44,3.18c-4.52,2-12,4.08-23.1,3.78-14.84-.41-30.6-13.52-34-10.73-2.84,2.34-8.43,12-8.43,12s7.16,8.12,12.94,15.09h62.06a364.48,364.48,0,0,0,25.79-40.54S125.65,605.39,119.55,607.16Z" fill="#8379b0" opacity="0.41"/><path d="M132.8,196.73c14.53-18.21,3.74-31.69,18.44-54.22,20.94-32.09,54.23-22.19,69-51.72,11.65-23.25-4.74-37.85,6.86-54.83,20-29.22,79.77-2.63,92.61-22.18,2.21-3.36,3-8.07,2.53-13.78H0V198c19.54,13,39.52,21,57.76,22.51C62.51,220.85,110.44,224.77,132.8,196.73Z" fill="#ded3e8"/></g></g></svg>