<svg width="51" height="51" viewBox="0 0 51 51" fill="none" xmlns="http://www.w3.org/2000/svg"><g clip-path="url(#clip0_40_471)"><path d="M37.5511 9.06618C37.5511 5.77106 34.8703 3.09027 31.5752 3.09027C28.2801 3.09027 25.5993 5.77106 25.5993 9.06618C25.5993 12.3613 28.2801 15.0421 31.5752 15.0421C34.8703 15.0421 37.5511 12.3613 37.5511 9.06618ZM31.5752 12.0541C29.9277 12.0541 28.5873 10.7137 28.5873 9.06618C28.5873 7.41862 29.9277 6.07823 31.5752 6.07823C33.2228 6.07823 34.5632 7.41862 34.5632 9.06618C34.5632 10.7137 33.2228 12.0541 31.5752 12.0541Z" fill="currentColor"></path><path d="M50.2947 10.8487C49.0667 8.96556 46.5591 8.33461 44.586 9.41226L34.279 15.0416C33.3084 15.0416 16.1894 15.0416 15.1914 15.0416V1.49617C15.1914 0.671101 14.5225 0.00219727 13.6974 0.00219727H1.49398C0.668903 0.00219727 0 0.671101 0 1.49617V10.5596C0 11.3847 0.668903 12.0536 1.49398 12.0536H12.2033V49.5026C12.2033 50.3277 12.8722 50.9966 13.6973 50.9966C14.5224 50.9966 15.1913 50.3277 15.1913 49.5026V24.0054H24.1551V46.5147C24.1551 50.399 28.7646 52.4156 31.625 49.8526C34.4825 52.4131 39.0949 50.4048 39.0949 46.5147V23.3212L49.0299 16.8488C51.038 15.5407 51.6042 12.8565 50.2947 10.8487ZM2.98795 9.06556V2.99005H12.2033V9.06556H2.98795ZM34.613 48.0086C33.7892 48.0086 33.119 47.3384 33.119 46.5146C33.119 45.3559 33.119 38.5353 33.119 37.4511C33.119 36.626 32.4501 35.9571 31.625 35.9571C30.7999 35.9571 30.131 36.626 30.131 37.4511V46.5146C30.131 47.3384 29.4608 48.0086 28.637 48.0086C27.8133 48.0086 27.1431 47.3384 27.1431 46.5146V32.9692H36.1069V46.5146C36.1069 47.3384 35.4367 48.0086 34.613 48.0086ZM47.399 14.3452L36.7854 21.2596C36.3622 21.5354 36.1069 22.0063 36.1069 22.5114V29.9812H27.1431V22.5114C27.1431 21.6863 26.4742 21.0174 25.6491 21.0174H15.1913V18.0294C35.5362 17.9654 34.7563 18.1854 35.3764 17.8467L46.0182 12.0346C46.6312 11.6997 47.4104 11.8957 47.7919 12.4809C48.1988 13.1046 48.0231 13.9387 47.399 14.3452Z" fill="currentColor"></path></g><defs><clipPath id="clip0_40_471"><rect width="51" height="51" fill="white"></rect></clipPath></defs></svg>