<svg width="62" height="62" viewBox="0 0 62 62" fill="none" xmlns="http://www.w3.org/2000/svg"><path d="M18.5935 13.1632C18.5935 9.99769 16.0182 7.42236 12.8527 7.42236C9.68721 7.42236 7.11176 9.99769 7.11176 13.1632C7.11176 16.3287 9.68709 18.904 12.8526 18.904C16.0181 18.904 18.5935 16.3287 18.5935 13.1632ZM12.8526 15.2753C11.6879 15.2753 10.7405 14.3279 10.7405 13.1632C10.7405 11.9985 11.6879 11.0511 12.8526 11.0511C14.0172 11.0511 14.9647 11.9985 14.9647 13.1632C14.9647 14.3279 14.0172 15.2753 12.8526 15.2753Z" fill="currentColor"></path><path d="M61.9985 30.1427C61.9699 29.4278 61.5237 28.7965 60.8594 28.5308L41.5731 20.8162C41.014 20.5927 40.3806 20.6609 39.882 20.9983C39.3834 21.3358 39.0848 21.8986 39.0848 22.5008V49.1118C36.8673 49.7672 35.148 51.5914 34.6425 53.8686H8.97854C7.04404 53.8686 5.4701 52.2947 5.4701 50.3602C5.4701 48.4257 7.04404 46.8518 8.97854 46.8518H25.3964C29.1293 46.8518 32.1663 43.8148 32.1663 40.0819C32.1663 36.349 29.1293 33.312 25.3964 33.312H16.0524L23.8586 20.2611C25.1816 18.0492 25.881 15.5177 25.881 12.9404C25.881 5.80508 20.0759 0 12.9405 0C5.80521 0 0 5.80496 0 12.9403V12.9866C0 15.5292 0.681958 18.0315 1.97207 20.2225L11.2895 36.0468C11.5802 36.5141 12.1159 36.9451 12.8468 36.9406H25.3966C27.1286 36.9406 28.5377 38.3497 28.5377 40.0818C28.5377 41.8138 27.1286 43.2229 25.3966 43.2229H8.97854C5.04308 43.2229 1.84124 46.4247 1.84124 50.3602C1.84124 54.2956 5.04308 57.4975 8.97854 57.4975H34.8937C35.8039 59.9304 38.1517 61.6673 40.8982 61.6673C44.4322 61.6673 47.3073 58.7923 47.3073 55.2582C47.3073 52.3548 45.3661 49.8976 42.7136 49.1127V40.9138L60.9922 31.841C61.6331 31.5227 62.0273 30.8576 61.9985 30.1427ZM5.09901 18.3813C4.13715 16.7476 3.62874 14.8821 3.62874 12.9864V12.9402C3.62874 7.80579 7.80592 3.6285 12.9404 3.6285C18.0749 3.6285 22.2521 7.80579 22.2521 12.9402C22.2521 14.8617 21.7307 16.749 20.7444 18.3982L12.8653 31.5711L5.09901 18.3813ZM43.6784 55.2581C43.6784 56.7912 42.431 58.0383 40.8982 58.0383C39.3654 58.0383 38.118 56.7911 38.118 55.2581C38.118 53.7269 39.3624 52.481 40.8928 52.478C40.8951 52.478 40.8973 52.4784 40.8993 52.4784C40.9013 52.4784 40.9033 52.4782 40.9052 52.4782C42.435 52.4817 43.6784 53.7273 43.6784 55.2581ZM42.7136 36.8623V25.1808L55.7456 30.3936L42.7136 36.8623Z" fill="currentColor"></path></svg>