<svg width="69" height="68" viewBox="0 0 69 68" fill="none" xmlns="http://www.w3.org/2000/svg"><g clip-path="url(#clip0_73_177)"><mask id="mask0_73_177" style="mask-type:luminance" maskUnits="userSpaceOnUse" x="0" y="0" width="69" height="68"><path d="M0.947388 0.30294H68.0527V67.4082H0.947388V0.30294Z" fill="white"></path></mask><g mask="url(#mask0_73_177)"><path d="M26.505 2.26924C13.4757 2.26924 2.91333 12.8315 2.91333 25.8609C2.91333 32.2223 5.44315 37.9842 9.53644 42.2273L2.91333 49.4526H26.505C39.5343 49.4526 50.0967 38.8902 50.0967 25.8609C50.0967 12.8315 39.5343 2.26924 26.505 2.26924Z" stroke="currentColor" stroke-width="3" stroke-miterlimit="10" stroke-linecap="round" stroke-linejoin="round"></path><path d="M29.5166 49.2619C30.5896 58.3735 38.3375 65.4424 47.7375 65.4424H66.0866L60.9352 59.8227C64.1191 56.5225 66.0866 52.041 66.0866 47.0933C66.0866 37.6932 59.0178 29.9454 49.9061 28.8724" stroke="currentColor" stroke-width="3" stroke-miterlimit="10" stroke-linecap="round" stroke-linejoin="round"></path><path d="M33.0583 16.3586C30.0046 16.3586 27.2325 18.4469 26.5051 21.2735V21.2734C25.7776 18.4469 23.0054 16.3586 19.9518 16.3586C16.3324 16.3586 13.3986 19.2924 13.3986 22.9118C13.3986 31.1034 26.5051 39.2949 26.5051 39.2949C26.5051 39.2949 39.6115 31.1034 39.6115 22.9118C39.6115 19.2924 36.6777 16.3586 33.0583 16.3586Z" stroke="currentColor" stroke-width="3" stroke-miterlimit="10" stroke-linecap="round" stroke-linejoin="round"></path></g></g><defs><clipPath id="clip0_73_177"><rect width="67.1053" height="67.1053" fill="white" transform="translate(0.947388 0.302734)"></rect></clipPath></defs></svg>