<svg width="85" height="78" viewBox="0 0 85 78" fill="none" xmlns="http://www.w3.org/2000/svg"><g clip-path="url(#clip0_73_163)"><path d="M0.0001297 62.7258V40.8836H13.8123L23.6738 56.5469V30.7932C21.8717 30.3047 20.5539 28.7854 20.5539 26.9907C20.5539 25.1959 21.8719 23.6766 23.6738 23.1882V19.6274H26.164V23.0228H34.0214L42.2742 20.2923C40.5417 19.4812 39.2295 18.1339 38.5631 16.4693L37.0245 12.6269C36.3224 10.8736 36.4162 8.97097 37.2889 7.26997C38.1617 5.56883 39.7044 4.28055 41.6335 3.64238C45.629 2.32045 50.0632 4.19982 51.5178 7.83194L52.8295 11.1081H56.9344V13.3717H53.4829C53.6137 14.5576 53.4036 15.7347 52.9075 16.8001C53.9147 16.5731 54.9711 16.6649 55.929 17.0709C56.0077 17.1043 56.0845 17.1399 56.1604 17.1769L65.7933 16.4479L69.3985 24.9877L67.0736 25.7987L64.1378 18.8444L58.2401 19.2907C58.256 19.3271 58.2726 19.363 58.2874 19.3998L66.2437 38.2462L70.9088 34.8833L67.9658 27.9121L70.2907 27.1011L73.8887 35.6241L67.2858 40.3839C68.9118 43.0765 71.0927 47.0103 67.9751 52.0045L75.2358 68.2575V71.7799H85V74.0435H0.0001297V64.9892H2.49036V71.7799H55.9091L43.2514 61.9348H18.818V59.6712H22.7718L12.3683 43.1471H2.49036V62.7258H0.0001297ZM42.4663 52.8814H37.4858V57.4085H36.2407C34.5033 57.4085 34.208 57.9361 34.082 58.1612C33.8733 58.5338 33.7961 59.0659 33.7674 59.6712H42.4661V52.8814H42.4663ZM31.8627 57.1345C32.4504 56.0851 33.5014 55.4469 34.9957 55.2293V44.618C34.9957 41.4976 37.7885 38.9591 41.2213 38.9591H49.0128L43.2766 30.034L36.6066 30.9582H26.1642V59.671H31.2763C31.3129 58.7726 31.4375 57.8938 31.8627 57.1345ZM23.0439 26.9907C23.0439 27.9303 23.885 28.6948 24.9188 28.6948H28.3347V25.2863H24.9189C23.885 25.2863 23.0439 26.051 23.0439 26.9907ZM49.1776 8.60609C48.4067 6.68069 46.3994 5.48281 44.2657 5.48281C43.674 5.48281 43.0724 5.57501 42.485 5.76923C40.0504 6.57476 38.6741 8.86534 39.1402 11.1079H50.1792L49.1776 8.60609ZM39.9726 13.3717L40.9031 15.6951C41.3776 16.8803 42.3376 17.8292 43.6063 18.3669C44.874 18.9043 46.29 18.963 47.593 18.5326L47.5977 18.5311C49.9664 17.7462 51.3333 15.5556 50.9743 13.3717H39.9726ZM55.9589 20.2021L55.9514 20.1836C55.5601 19.2061 54.367 18.7004 53.2915 19.0562L34.4603 25.2863H30.8249V28.6948H36.4177L48.098 27.0762L48.4734 29.3138L45.9247 29.6671L51.8968 38.9591H63.8777L55.9589 20.2021ZM65.5325 51.3102C68.465 47.0397 66.6045 43.949 64.9514 41.2228H41.2213C39.1617 41.2228 37.486 42.7459 37.486 44.6181V50.618H42.4664V45.7499H51.1799C51.1955 45.7499 51.2112 45.7499 51.2269 45.7499C53.9151 45.7499 57.1612 46.1462 58.5555 49.159L64.8782 62.8197H70.1189L65.1962 51.8L65.5325 51.3102ZM72.7456 68.6997L71.1301 65.0834H65.9258L68.0211 69.6105H66.1464C64.4214 69.6105 64.1195 70.1567 63.9905 70.39C63.796 70.742 63.715 71.2352 63.6809 71.7801H72.7456V68.6997ZM61.1867 71.7799C61.2292 70.9343 61.3602 70.1061 61.7654 69.3733C62.2821 68.4389 63.1513 67.8246 64.3596 67.5368L56.2599 50.0368C55.5865 48.5821 54.173 48.0135 51.2211 48.0135H51.1819H44.9563V60.2821L59.7389 71.7801L61.1867 71.7799Z" fill="currentColor"></path><path d="M7.47058 45.4106H4.98035V47.6742H7.47058V45.4106Z" fill="currentColor"></path><path d="M7.47058 49.938H4.98035V52.2016H7.47058V49.938Z" fill="currentColor"></path><path d="M54.4991 23.7441L53.6076 21.63L51.2819 22.4403L52.1734 24.5544L54.4991 23.7441Z" fill="currentColor"></path><path d="M56.2822 27.9688L55.3907 25.8546L53.0648 26.6649L53.9563 28.7791L56.2822 27.9688Z" fill="currentColor"></path></g><defs><clipPath id="clip0_73_163"><rect width="85" height="77.2632" fill="white" transform="matrix(-1 0 0 1 85 0)"></rect></clipPath></defs></svg>