<svg width="40" height="40" viewBox="0 0 40 40" fill="none" xmlns="http://www.w3.org/2000/svg"><mask id="mask0_40_476" style="mask-type:luminance" maskUnits="userSpaceOnUse" x="0" y="0" width="40" height="40"><path d="M0 0H40V40H0V0Z" fill="white"></path></mask><g mask="url(#mask0_40_476)"><path d="M20 23.125V38.8281H38.8281V12.2656H34.1406" stroke="currentColor" stroke-width="2" stroke-miterlimit="10" stroke-linecap="round" stroke-linejoin="round"></path><path d="M5.85938 12.2656H1.17188V38.8281H20V23.2031" stroke="currentColor" stroke-width="2" stroke-miterlimit="10" stroke-linecap="round" stroke-linejoin="round"></path><path d="M26.9598 9.14062H34.1406V34.1406H26.5035C23.5528 34.1406 20.933 36.0287 20 38.8281" stroke="currentColor" stroke-width="2" stroke-miterlimit="10" stroke-linecap="round" stroke-linejoin="round"></path><path d="M13.0402 9.14062H5.85938V34.1406H13.4965C16.4472 34.1406 19.067 36.0287 20 38.8281" stroke="currentColor" stroke-width="2" stroke-miterlimit="10" stroke-linecap="round" stroke-linejoin="round"></path><path d="M20 1.17188C14.6974 1.17188 11.3111 6.82758 13.8151 11.5017L20 23.0469L26.1849 11.5017C28.6889 6.82758 25.3027 1.17188 20 1.17188Z" stroke="currentColor" stroke-width="2" stroke-miterlimit="10" stroke-linecap="round" stroke-linejoin="round"></path><path d="M22.3438 8.20312C22.3438 9.4975 21.2944 10.5469 20 10.5469C18.7056 10.5469 17.6562 9.4975 17.6562 8.20312C17.6562 6.90875 18.7056 5.85937 20 5.85937C21.2944 5.85937 22.3438 6.90875 22.3438 8.20312Z" stroke="currentColor" stroke-width="2" stroke-miterlimit="10" stroke-linecap="round" stroke-linejoin="round"></path></g></svg>